<mxfile host="Electron" modified="2023-12-01T08:52:55.800Z" agent="Mozilla/5.0 (Windows NT 10.0; Win64; x64) AppleWebKit/537.36 (KHTML, like Gecko) draw.io/22.1.2 Chrome/114.0.5735.289 Electron/25.9.4 Safari/537.36" etag="yL2WpquIkYvIlwJaD9Ca" version="22.1.2" type="device">
  <diagram name="Trang-1" id="ho3ba20rykhIRiWr7R_7">
    <mxGraphModel dx="1036" dy="-2646" grid="1" gridSize="10" guides="1" tooltips="1" connect="1" arrows="1" fold="1" page="1" pageScale="1" pageWidth="850" pageHeight="1100" math="1" shadow="0">
      <root>
        <mxCell id="0" />
        <mxCell id="1" parent="0" />
        <mxCell id="9KsaRRSKQVZQm6izvpvD-1" value="" style="edgeStyle=orthogonalEdgeStyle;rounded=0;orthogonalLoop=1;jettySize=auto;html=1;endArrow=oval;endFill=1;" edge="1" parent="1" source="9KsaRRSKQVZQm6izvpvD-2">
          <mxGeometry relative="1" as="geometry">
            <mxPoint x="622.76" y="3660" as="targetPoint" />
          </mxGeometry>
        </mxCell>
        <mxCell id="9KsaRRSKQVZQm6izvpvD-2" value="" style="pointerEvents=1;verticalLabelPosition=bottom;shadow=0;dashed=0;align=center;html=1;verticalAlign=top;shape=mxgraph.electrical.resistors.resistor_2;direction=south;" vertex="1" parent="1">
          <mxGeometry x="612.5" y="3510" width="20" height="100" as="geometry" />
        </mxCell>
        <mxCell id="9KsaRRSKQVZQm6izvpvD-3" value="" style="edgeStyle=orthogonalEdgeStyle;rounded=0;orthogonalLoop=1;jettySize=auto;html=1;endArrow=none;endFill=0;" edge="1" parent="1" source="9KsaRRSKQVZQm6izvpvD-4" target="9KsaRRSKQVZQm6izvpvD-2">
          <mxGeometry relative="1" as="geometry" />
        </mxCell>
        <mxCell id="9KsaRRSKQVZQm6izvpvD-4" value="" style="pointerEvents=1;verticalLabelPosition=bottom;shadow=0;dashed=0;align=center;html=1;verticalAlign=top;shape=mxgraph.electrical.resistors.resistor_2;direction=south;" vertex="1" parent="1">
          <mxGeometry x="612.5" y="3698" width="20" height="100" as="geometry" />
        </mxCell>
        <mxCell id="9KsaRRSKQVZQm6izvpvD-5" style="edgeStyle=orthogonalEdgeStyle;rounded=0;orthogonalLoop=1;jettySize=auto;html=1;exitX=0;exitY=0.5;exitDx=0;exitDy=0;exitPerimeter=0;endArrow=none;endFill=0;" edge="1" parent="1" source="9KsaRRSKQVZQm6izvpvD-6">
          <mxGeometry relative="1" as="geometry">
            <mxPoint x="758.02" y="3439" as="targetPoint" />
            <Array as="points">
              <mxPoint x="682.02" y="3439" />
              <mxPoint x="682.02" y="3439" />
            </Array>
          </mxGeometry>
        </mxCell>
        <mxCell id="9KsaRRSKQVZQm6izvpvD-6" value="" style="pointerEvents=1;verticalLabelPosition=bottom;shadow=0;dashed=0;align=center;html=1;verticalAlign=top;shape=mxgraph.electrical.resistors.resistor_2;direction=south;" vertex="1" parent="1">
          <mxGeometry x="758.02" y="3439" width="20" height="100" as="geometry" />
        </mxCell>
        <mxCell id="9KsaRRSKQVZQm6izvpvD-7" value="" style="edgeStyle=orthogonalEdgeStyle;rounded=0;orthogonalLoop=1;jettySize=auto;html=1;endArrow=oval;endFill=0;" edge="1" parent="1">
          <mxGeometry relative="1" as="geometry">
            <mxPoint x="684.02" y="3407" as="targetPoint" />
            <mxPoint x="683.76" y="3437" as="sourcePoint" />
          </mxGeometry>
        </mxCell>
        <mxCell id="9KsaRRSKQVZQm6izvpvD-8" value="" style="edgeStyle=orthogonalEdgeStyle;rounded=0;orthogonalLoop=1;jettySize=auto;html=1;endArrow=none;endFill=0;" edge="1" parent="1" source="9KsaRRSKQVZQm6izvpvD-9">
          <mxGeometry relative="1" as="geometry">
            <mxPoint x="622.5" y="3439" as="targetPoint" />
          </mxGeometry>
        </mxCell>
        <mxCell id="9KsaRRSKQVZQm6izvpvD-9" value="" style="shape=waypoint;sketch=0;size=6;pointerEvents=1;points=[];fillColor=default;resizable=0;rotatable=0;perimeter=centerPerimeter;snapToPoint=1;verticalAlign=top;shadow=0;dashed=0;" vertex="1" parent="1">
          <mxGeometry x="673.76" y="3429" width="20" height="20" as="geometry" />
        </mxCell>
        <mxCell id="9KsaRRSKQVZQm6izvpvD-10" value="" style="pointerEvents=1;verticalLabelPosition=bottom;shadow=0;dashed=0;align=center;html=1;verticalAlign=top;shape=mxgraph.electrical.resistors.resistor_2;direction=south;" vertex="1" parent="1">
          <mxGeometry x="758.02" y="3697" width="20" height="100" as="geometry" />
        </mxCell>
        <mxCell id="9KsaRRSKQVZQm6izvpvD-11" style="edgeStyle=orthogonalEdgeStyle;rounded=0;orthogonalLoop=1;jettySize=auto;html=1;exitX=0;exitY=0.5;exitDx=0;exitDy=0;exitPerimeter=0;endArrow=none;endFill=0;" edge="1" parent="1" source="9KsaRRSKQVZQm6izvpvD-12">
          <mxGeometry relative="1" as="geometry">
            <mxPoint x="618.7600000000001" y="3658.7142857142862" as="targetPoint" />
          </mxGeometry>
        </mxCell>
        <mxCell id="9KsaRRSKQVZQm6izvpvD-12" value="" style="verticalLabelPosition=bottom;shadow=0;dashed=0;align=center;html=1;verticalAlign=top;shape=mxgraph.electrical.transistors.npn_transistor_5;" vertex="1" parent="1">
          <mxGeometry x="704.0899999999999" y="3609" width="64" height="100" as="geometry" />
        </mxCell>
        <mxCell id="9KsaRRSKQVZQm6izvpvD-13" value="" style="edgeStyle=orthogonalEdgeStyle;rounded=0;orthogonalLoop=1;jettySize=auto;html=1;endArrow=none;endFill=0;entryX=1;entryY=0.5;entryDx=0;entryDy=0;entryPerimeter=0;exitX=1;exitY=0.5;exitDx=0;exitDy=0;exitPerimeter=0;" edge="1" parent="1" source="9KsaRRSKQVZQm6izvpvD-4" target="9KsaRRSKQVZQm6izvpvD-10">
          <mxGeometry relative="1" as="geometry">
            <mxPoint x="628" y="3808" as="sourcePoint" />
            <mxPoint x="767.76" y="3800" as="targetPoint" />
            <Array as="points">
              <mxPoint x="623" y="3808" />
              <mxPoint x="768" y="3808" />
            </Array>
          </mxGeometry>
        </mxCell>
        <mxCell id="9KsaRRSKQVZQm6izvpvD-14" style="edgeStyle=orthogonalEdgeStyle;rounded=0;orthogonalLoop=1;jettySize=auto;html=1;exitX=1;exitY=0;exitDx=0;exitDy=0;exitPerimeter=0;entryX=1;entryY=0.5;entryDx=0;entryDy=0;entryPerimeter=0;endArrow=none;endFill=0;" edge="1" parent="1" source="9KsaRRSKQVZQm6izvpvD-12" target="9KsaRRSKQVZQm6izvpvD-6">
          <mxGeometry relative="1" as="geometry" />
        </mxCell>
        <mxCell id="9KsaRRSKQVZQm6izvpvD-15" value="" style="endArrow=classic;html=1;rounded=0;" edge="1" parent="1">
          <mxGeometry width="50" height="50" relative="1" as="geometry">
            <mxPoint x="748.76" y="3456" as="sourcePoint" />
            <mxPoint x="748.76" y="3516" as="targetPoint" />
          </mxGeometry>
        </mxCell>
        <mxCell id="9KsaRRSKQVZQm6izvpvD-16" value="$$I_{CQ}$$" style="text;html=1;strokeColor=none;fillColor=none;align=center;verticalAlign=middle;whiteSpace=wrap;rounded=0;" vertex="1" parent="1">
          <mxGeometry x="698.02" y="3474" width="60" height="30" as="geometry" />
        </mxCell>
        <mxCell id="9KsaRRSKQVZQm6izvpvD-17" value="$$V_{CC}$$" style="text;html=1;strokeColor=none;fillColor=none;align=center;verticalAlign=middle;whiteSpace=wrap;rounded=0;" vertex="1" parent="1">
          <mxGeometry x="654.76" y="3375" width="60" height="30" as="geometry" />
        </mxCell>
        <mxCell id="9KsaRRSKQVZQm6izvpvD-18" value="" style="edgeStyle=orthogonalEdgeStyle;rounded=0;orthogonalLoop=1;jettySize=auto;html=1;endArrow=none;endFill=0;" edge="1" parent="1" target="9KsaRRSKQVZQm6izvpvD-2">
          <mxGeometry relative="1" as="geometry">
            <mxPoint x="622.5" y="3439" as="sourcePoint" />
          </mxGeometry>
        </mxCell>
        <mxCell id="9KsaRRSKQVZQm6izvpvD-19" value="$$R_{1}$$" style="text;html=1;strokeColor=none;fillColor=none;align=center;verticalAlign=middle;whiteSpace=wrap;rounded=0;" vertex="1" parent="1">
          <mxGeometry x="617.5" y="3545" width="60" height="30" as="geometry" />
        </mxCell>
        <mxCell id="9KsaRRSKQVZQm6izvpvD-20" value="$$R_2$$" style="text;html=1;strokeColor=none;fillColor=none;align=center;verticalAlign=middle;whiteSpace=wrap;rounded=0;" vertex="1" parent="1">
          <mxGeometry x="622.76" y="3733" width="60" height="30" as="geometry" />
        </mxCell>
        <mxCell id="9KsaRRSKQVZQm6izvpvD-21" value="$$R_{C}$$" style="text;html=1;strokeColor=none;fillColor=none;align=center;verticalAlign=middle;whiteSpace=wrap;rounded=0;" vertex="1" parent="1">
          <mxGeometry x="762.3299999999999" y="3479" width="60" height="30" as="geometry" />
        </mxCell>
        <mxCell id="9KsaRRSKQVZQm6izvpvD-22" value="$$R_{E}$$" style="text;html=1;strokeColor=none;fillColor=none;align=center;verticalAlign=middle;whiteSpace=wrap;rounded=0;" vertex="1" parent="1">
          <mxGeometry x="762.3299999999999" y="3732" width="60" height="30" as="geometry" />
        </mxCell>
        <mxCell id="9KsaRRSKQVZQm6izvpvD-23" value="+" style="text;html=1;strokeColor=none;fillColor=none;align=center;verticalAlign=middle;whiteSpace=wrap;rounded=0;" vertex="1" parent="1">
          <mxGeometry x="736" y="3625" width="60" height="30" as="geometry" />
        </mxCell>
        <mxCell id="9KsaRRSKQVZQm6izvpvD-24" value="$$V_{CEQ}$$" style="text;html=1;strokeColor=none;fillColor=none;align=center;verticalAlign=middle;whiteSpace=wrap;rounded=0;" vertex="1" parent="1">
          <mxGeometry x="743.19" y="3644" width="60" height="30" as="geometry" />
        </mxCell>
        <mxCell id="9KsaRRSKQVZQm6izvpvD-25" value="-" style="text;html=1;strokeColor=none;fillColor=none;align=center;verticalAlign=middle;whiteSpace=wrap;rounded=0;" vertex="1" parent="1">
          <mxGeometry x="736" y="3663" width="60.74" height="34" as="geometry" />
        </mxCell>
        <mxCell id="9KsaRRSKQVZQm6izvpvD-26" value="" style="edgeStyle=orthogonalEdgeStyle;rounded=0;orthogonalLoop=1;jettySize=auto;html=1;endArrow=oval;endFill=1;" edge="1" parent="1">
          <mxGeometry relative="1" as="geometry">
            <mxPoint x="624" y="3848" as="sourcePoint" />
            <mxPoint x="624" y="3809" as="targetPoint" />
          </mxGeometry>
        </mxCell>
        <mxCell id="9KsaRRSKQVZQm6izvpvD-27" value="" style="pointerEvents=1;verticalLabelPosition=bottom;shadow=0;dashed=0;align=center;html=1;verticalAlign=top;shape=mxgraph.electrical.signal_sources.protective_earth;labelBackgroundColor=none;" vertex="1" parent="1">
          <mxGeometry x="611.5" y="3848" width="25" height="20" as="geometry" />
        </mxCell>
        <mxCell id="9KsaRRSKQVZQm6izvpvD-28" value="" style="shape=flexArrow;endArrow=classic;html=1;rounded=0;labelBackgroundColor=none;fontColor=default;fillColor=#6a00ff;strokeColor=#3700CC;" edge="1" parent="1">
          <mxGeometry width="50" height="50" relative="1" as="geometry">
            <mxPoint x="514" y="3660.09" as="sourcePoint" />
            <mxPoint x="574" y="3659.67" as="targetPoint" />
          </mxGeometry>
        </mxCell>
      </root>
    </mxGraphModel>
  </diagram>
</mxfile>
